<svg width="500" height="237" viewBox="0 0 500 237" fill="none" xmlns="http://www.w3.org/2000/svg">
<g clip-path="url(#clip0_88_1515)">
<path d="M0 0H500V236.528H0V0ZM11.9948 11.9948V224.533H488.019V11.9948H11.9948Z" fill="#EEEEEE"/>
<path d="M367.232 82.4721L351.43 163.667H323.087L338.822 82.4721H367.232V82.4721ZM373.049 51.4534L369.029 72.8737H340.833L344.786 51.4534H373.049V51.4534ZM316.989 104.971L291.269 105.037C290.484 100.125 287.182 97.7019 281.351 97.7019C277.943 97.7019 275.347 98.3809 273.59 99.7654C271.846 101.123 270.967 102.747 270.967 104.571C270.967 106.395 271.753 108.046 273.284 109.271C274.828 110.522 278.982 111.694 285.731 112.772C296.594 114.543 303.81 117.245 307.378 120.839C310.972 124.447 312.743 129.253 312.743 135.257C312.743 143.618 309.241 150.78 302.212 156.677C295.183 162.602 284.493 165.557 270.129 165.557C258.4 165.557 249.787 163.68 244.342 159.886C238.884 156.118 235.702 149.901 234.783 141.235L262.62 138.545C263.832 145.135 267.759 148.423 274.402 148.423C277.504 148.423 280.246 147.691 282.629 146.2C284.999 144.709 286.184 142.592 286.184 139.85C286.184 137.347 285.332 135.67 283.628 134.805C281.924 133.913 278.689 133.074 273.923 132.275C262.966 130.398 255.538 127.522 251.664 123.702C247.79 119.868 245.846 115.048 245.846 109.231C245.846 104.478 247.311 99.8453 250.226 95.3056C253.142 90.766 257.535 87.1849 263.432 84.5356C269.317 81.9263 276.559 80.595 285.145 80.595C294.983 80.595 302.532 82.1926 307.79 85.3743C313.036 88.5561 316.67 97.1428 316.976 104.957L316.989 104.971ZM151.911 107.114C153.615 99.406 157.503 91.0988 163.573 86.9053C169.657 82.7118 179.069 80.6084 191.823 80.6084C206.281 80.6084 216.052 82.6186 221.111 86.6124C226.17 90.6328 228.699 96.4638 228.699 104.119C228.699 109.217 227.421 117.604 224.892 129.306C222.522 140.356 221.337 148.064 221.337 152.404C221.337 156.092 221.95 159.846 223.135 163.667H195.617C194.978 160.458 194.645 157.37 194.645 154.388C187.27 161.856 179.003 165.57 169.897 165.57C160.791 165.57 153.948 163.161 149.888 158.381C145.814 153.576 143.791 148.011 143.791 141.687C143.791 134.498 145.588 129.013 149.236 125.233C152.857 121.465 157.33 118.909 162.655 117.551C167.953 116.193 175.222 115.022 184.421 113.997C192.582 113.025 198.053 112.066 200.769 111.148C201.315 108.738 201.595 106.914 201.595 105.636C201.595 103.599 200.676 101.975 198.799 100.751C196.908 99.5258 194.419 98.9001 191.344 98.9001C188.109 98.9001 185.473 99.4725 183.463 100.631C181.452 101.776 179.682 103.187 178.164 106.848L151.911 107.127V107.114ZM96.8632 80.6084C110.043 80.6084 119.641 84.296 125.672 91.6313C131.703 98.9666 134.711 107.593 134.711 117.418C134.711 124.94 132.981 132.568 129.506 140.303C126.058 148.064 120.853 154.228 113.89 158.754C106.941 163.294 98.3676 165.57 88.1966 165.57C75.3099 165.57 65.7913 162.069 59.6408 155.04C53.4903 148.037 50.4417 139.291 50.4417 128.84C50.4417 120.64 52.2655 112.692 55.9265 105.037C59.6142 97.3824 64.9393 91.405 71.9151 87.0917C78.891 82.7783 87.1982 80.6084 96.8499 80.6084H96.8632ZM452.473 105.024H425.235C424.45 100.125 421.148 97.7019 415.317 97.7019C411.909 97.7019 409.313 98.3809 407.556 99.7654C405.812 101.123 404.933 102.747 404.933 104.571C404.933 106.395 405.719 108.046 407.25 109.271C408.781 110.522 412.948 111.694 419.697 112.772C430.56 114.543 437.776 117.245 441.344 120.839C444.938 124.447 446.709 129.253 446.709 135.257C446.709 143.618 443.208 150.78 436.178 156.677C429.149 162.602 418.459 165.557 404.095 165.557C392.366 165.557 383.753 163.68 378.308 159.886C372.85 156.118 369.668 149.901 368.749 141.235L396.586 138.545C397.798 145.135 401.725 148.423 408.368 148.423C411.47 148.423 414.212 147.691 416.595 146.2C418.965 144.709 420.15 142.592 420.15 139.85C420.15 137.347 419.298 135.67 417.594 134.805C415.89 133.913 412.655 133.074 407.889 132.275C396.933 130.398 389.504 127.522 385.63 123.702C381.756 119.868 379.812 115.048 379.812 109.231C379.812 104.478 381.277 99.8453 384.192 95.3056C387.108 90.766 391.501 87.1849 397.398 84.5356C403.283 81.9263 410.525 80.595 419.112 80.595C428.95 80.595 436.498 82.1926 441.756 85.3743C447.002 88.5561 451.821 97.5422 452.46 105.011L452.473 105.024ZM23.9893 23.9893V212.538H476.024V23.9893H23.9893ZM197.641 127.296C184.647 129.706 177.033 131.822 174.769 133.673C172.52 135.497 171.388 137.667 171.388 140.183C171.388 142.699 172.187 144.829 173.798 146.32C175.435 147.838 177.512 148.597 180.041 148.597C183.596 148.597 187.11 146.999 190.612 143.817C194.086 140.636 196.429 135.111 197.641 127.309V127.296ZM90.0072 144.536C95.279 144.536 99.4725 141.554 102.574 135.603C105.65 129.666 107.207 123.063 107.207 115.821C107.207 110.575 106.022 106.888 103.653 104.771C101.31 102.654 98.7137 101.589 95.8248 101.589C89.8607 101.589 85.4143 104.571 82.4322 110.549C79.4501 116.5 77.9591 122.623 77.9591 128.84C77.9591 133.34 79.1173 137.068 81.4604 140.05C83.7768 143.032 86.639 144.549 89.9938 144.549L90.0072 144.536Z" fill="#EEEEEE"/>
</g>
<defs>
<clipPath id="clip0_88_1515">
<rect width="500" height="236.528" fill="white"/>
</clipPath>
</defs>
</svg>
